<?xml version="1.0" encoding="utf-8"?>
<!-- Generator: Adobe Illustrator 26.3.1, SVG Export Plug-In . SVG Version: 6.00 Build 0)  -->
<svg version="1.1" id="Layer_1" xmlns="http://www.w3.org/2000/svg" xmlns:xlink="http://www.w3.org/1999/xlink" x="0px" y="0px"
	 viewBox="0 0 792 612" style="enable-background:new 0 0 792 612;" xml:space="preserve">
<style type="text/css">
	.st0{display:none;fill:#DE5926;}
	.st1{display:none;fill:#CDE3A8;}
	.st2{fill:#43B653;}
	.st3{fill:#F3C218;}
	.st4{fill:#DB3335;}
	.st5{fill:#577EC0;}
	.st6{fill:#BEBDBF;}
	.st7{fill:#D6E5BD;}
	.st8{fill:#39803E;}
	.st9{fill:#A6832F;}
	.st10{fill:#FFF1AB;}
	.st11{fill:#65458F;}
	.st12{fill:#E9E7F3;}
	.st13{fill:#7E5424;}
	.st14{fill:#F7EBDC;}
	.st15{fill:#CC4127;}
	.st16{fill:#FEE0CE;}
	.st17{fill:#FFE6E6;}
	.st18{fill:#2568B3;}
	.st19{fill:#CCEFFF;}
	.st20{fill:#5D5D5D;}
	.st21{fill:#E5E5E5;}
	.st22{fill:#66468F;}
	.st23{fill:#E8E7F4;}
	.st24{fill:#EB7A38;}
	.st25{fill:#FFEBE0;}
</style>
<rect x="234.8" y="296.6" class="st0" width="78.6" height="78.6"/>
<rect x="750.9" y="639.3" class="st1" width="41.1" height="78.6"/>
<rect x="52.9" y="194.3" class="st2" width="78.6" height="78.6"/>
<rect x="145.2" y="194.6" class="st3" width="78.6" height="78.6"/>
<rect x="237.5" y="194.6" class="st4" width="78.6" height="78.6"/>
<rect x="329.7" y="194.6" class="st5" width="78.6" height="78.6"/>
<rect x="422" y="194.6" class="st6" width="78.6" height="78.6"/>
<g>
	<rect x="52.9" y="392.3" class="st7" width="78.6" height="78.6"/>
	<rect x="52.9" y="313.3" class="st8" width="79.1" height="78.6"/>
</g>
<g>
	<rect x="145.2" y="313.6" class="st9" width="78.6" height="78.6"/>
	<rect x="145.2" y="392.6" class="st10" width="78.6" height="78.6"/>
</g>
<g>
	<rect x="329.8" y="313.6" class="st11" width="78.6" height="78.6"/>
	<rect x="329.8" y="392.6" class="st12" width="78.6" height="78.6"/>
</g>
<g>
	<rect x="513.8" y="313.6" class="st13" width="78.6" height="78.6"/>
	<rect x="513.8" y="392.6" class="st14" width="78.6" height="78.6"/>
</g>
<g>
	<rect x="237.5" y="313.6" class="st15" width="78.6" height="78.6"/>
	<rect x="237.5" y="392.6" class="st16" width="78.6" height="78.6"/>
</g>
<g>
	<rect x="276.8" y="313.6" class="st4" width="39.3" height="78.6"/>
	<rect x="276.8" y="392.6" class="st17" width="39.3" height="78.6"/>
</g>
<g>
	<rect x="329.7" y="313.6" class="st18" width="78.6" height="78.6"/>
	<rect x="329.9" y="392.6" class="st19" width="78.4" height="78.6"/>
</g>
<g>
	<rect x="422" y="313.6" class="st20" width="78.6" height="78.6"/>
	<rect x="422" y="392.6" class="st21" width="78.6" height="78.6"/>
</g>
<g>
	<rect x="606" y="313.5" class="st22" width="78.6" height="78.6"/>
	<rect x="606" y="392.5" class="st23" width="78.6" height="78.6"/>
</g>
<g>
	<rect x="698.3" y="313.5" class="st24" width="78.6" height="78.6"/>
	<rect x="698.3" y="392.5" class="st25" width="78.6" height="78.6"/>
</g>
</svg>
